{
 "cells": [
  {
   "cell_type": "markdown",
   "metadata": {
    "id": "LoiSSLvJZOds"
   },
   "source": [
    "Quick one-off notebook to generate animations of value iteration at work.  Forked from the val_iter_GPU.ipynb notebook.\n",
    "\n"
   ]
  },
  {
   "cell_type": "markdown",
   "metadata": {
    "id": "2r4O8aQUta35"
   },
   "source": [
    "# Preliminaries"
   ]
  },
  {
   "cell_type": "code",
   "execution_count": 87,
   "metadata": {
    "id": "XJfRXc_Bta3_"
   },
   "outputs": [],
   "source": [
    "\n",
    "\n",
    "import numpy as np\n",
    "import operator\n",
    "\n",
    "\n",
    "import matplotlib.pyplot as plt\n",
    "\n",
    "\n",
    "import IPython.display as dp\n",
    "import matplotlib.patches as patches\n",
    "import matplotlib.gridspec as gridspec \n",
    "from mpl_toolkits.mplot3d import Axes3D\n",
    "\n",
    "import time\n",
    "\n",
    "import numba as nb\n",
    "\n",
    "from timeit import default_timer as timer"
   ]
  },
  {
   "cell_type": "code",
   "execution_count": 95,
   "metadata": {},
   "outputs": [
    {
     "name": "stdout",
     "output_type": "stream",
     "text": [
      "mkdir: cannot create directory ‘anim’: File exists\n"
     ]
    }
   ],
   "source": [
    "!mkdir anim\n",
    "def plot_frame( frame_num, V_o, final_V_o, min_V ):\n",
    "    fig = plt.figure(figsize=(16,6), constrained_layout=False)\n",
    "    gs = fig.add_gridspec(1,2)\n",
    "    \n",
    "    V_max = final_V_o.max()\n",
    "    #V_min = final_V_o.min()\n",
    "    V_min = min_V # supplied by caller\n",
    "\n",
    "    ax = fig.add_subplot(gs[0, 0])\n",
    "    plt.title( 'Value function, V (top view)')\n",
    "    p = plt.imshow( V_o[1:-1,1:-1], cmap=\"coolwarm\", vmax=V_max, vmin=V_min )\n",
    "    plt.colorbar(p)\n",
    "\n",
    "    ax = fig.add_subplot(gs[0, 1], projection='3d')\n",
    "    plt.title( 'Value function, V (3D view)')\n",
    "\n",
    "    X = np.arange(1, V_o.shape[0] - 1, 1.0)\n",
    "    Y = np.arange(1, V_o.shape[1] - 1, 1.0)\n",
    "    X, Y = np.meshgrid(X, Y)\n",
    "\n",
    "    Z = V_o[1:-1,1:-1]\n",
    "\n",
    "    #print( X.shape, V_o.shape )\n",
    "\n",
    "\n",
    "    e=40\n",
    "    a=30\n",
    "\n",
    "    ax.view_init(elev=e, azim=a)\n",
    "    p = ax.plot_surface(X, Y, Z, cmap='coolwarm',\n",
    "                           linewidth=0, antialiased=False, vmax=V_max, vmin=V_min)\n",
    "    plt.colorbar(p)\n",
    "    ax.set_zlim3d( min_V, V_max )\n",
    "    plt.savefig( 'anim/frame_%05d.png' % frame_num, format='png' )\n",
    "    \n",
    "    plt.close(fig)\n",
    "\n"
   ]
  },
  {
   "cell_type": "code",
   "execution_count": 124,
   "metadata": {
    "id": "0LykZfYJdS19"
   },
   "outputs": [],
   "source": [
    "#%load_ext autoreload\n",
    "#%autoreload 2\n",
    "\n",
    "#import os\n",
    "#os.environ[\"NUMBA_ENABLE_CUDASIM\"] = \"\"\n",
    "#del os.environ[\"NUMBA_ENABLE_CUDASIM\"]\n",
    "\n",
    "import numpy as np\n",
    "import math\n",
    "\n",
    "import numba\n",
    "from numba import cuda\n",
    "\n",
    "@cuda.jit\n",
    "def bellman_update(xmax, ymax, V_i, V_o, R_gpu, residual_gpu, gamma):\n",
    "    \n",
    "    pos = cuda.grid(1)\n",
    "\n",
    "    #print( pos )\n",
    "    if pos > xmax * ymax:\n",
    "      return\n",
    "  \n",
    "    x = pos % ymax\n",
    "    y = pos // ymax\n",
    "\n",
    "    #print( \"pos %d -> x %d, y %d\" % (pos, x, y ) ) \n",
    "    if x >= xmax:\n",
    "      return\n",
    "\n",
    "    if y >= ymax:\n",
    "      return\n",
    "\n",
    "    # up\n",
    "    xu = x \n",
    "    yu = max( 0, y - 1 )\n",
    "    vu = V_i[ xu, yu ]\n",
    "\n",
    "    # left\n",
    "    xl = max( 0, x - 1 ) \n",
    "    yl = y\n",
    "    vl = V_i[ xl, yl ]\n",
    "\n",
    "    # down\n",
    "    xd = x \n",
    "    yd = min( ymax-1, y + 1 )\n",
    "    vd = V_i[ xd, yd ]\n",
    "\n",
    "    # right\n",
    "    xr = min( xmax-1, x + 1 ) \n",
    "    yr = y\n",
    "    vr = V_i[ xr, yr ]\n",
    "\n",
    "    # immediate reward\n",
    "    r = R_gpu[ x, y ]\n",
    "\n",
    "    # bellman update\n",
    "    v = r + gamma * max( vu, vl, vd, vr )\n",
    "\n",
    "    # residual \n",
    "    res = abs(v - V_i[ x, y ])\n",
    "\n",
    "    # update the value \n",
    "    V_o[ x, y ] = v\n",
    "\n",
    "    # atomically update the residual\n",
    "    cuda.atomic.max( residual_gpu, 0, res ) \n",
    "    \n",
    "\n",
    "\n",
    "def numba_value_iteration(dims, V, R, epsilon, gamma, plot=False, final_V_o=None, min_V=None, skip=1 ):\n",
    "    # Move data to GPU so we can do two operations on it\n",
    "    V_gpu_a = cuda.to_device(V)\n",
    "    V_gpu_b = cuda.to_device(V)\n",
    "    R_gpu = cuda.to_device(R)\n",
    "    residual_log = []\n",
    "\n",
    "    residual = np.array( [ -np.inf ], dtype=V.dtype )\n",
    "\n",
    "    count = 0\n",
    "    while count == 0 or ( residual[0] > epsilon ):   # and count < 100 ):\n",
    "\n",
    "      # Set up a ping-pong between the two value function buffers\n",
    "      # so that V_i (input) is fixed during the iteration and\n",
    "      # V_o (output) is updated at each iteration.\n",
    "      if count % 2 == 0:\n",
    "        V_i = V_gpu_a\n",
    "        V_o = V_gpu_b\n",
    "      else:\n",
    "        V_i = V_gpu_b\n",
    "        V_o = V_gpu_a\n",
    "\n",
    "      # reset residual for next run\n",
    "      residual[0] = -np.inf\n",
    "    \n",
    "      residual_gpu = cuda.to_device( residual )\n",
    "\n",
    "      num_threads = dims[0] * dims[1]\n",
    "      threadsperblock = 256\n",
    "      blockspergrid = math.ceil(num_threads / threadsperblock)\n",
    "\n",
    "      ### Perform Bellman upate\n",
    "      bellman_update[blockspergrid,threadsperblock](dims[0], dims[1], V_i, V_o, R_gpu, residual_gpu, gamma)\n",
    "\n",
    "      residual = residual_gpu.copy_to_host()\n",
    "      #print( \"count %d: %f\" % (count, residual[0]) )\n",
    "\n",
    "      V_o_host = V_o.copy_to_host()\n",
    "        \n",
    "      if plot: \n",
    "          if skip is None or count % skip == 1:\n",
    "              #np.save( 'val_iter/hist_%d.npy' % count, V_o_host )\n",
    "              plot_frame( count, V_o_host, final_V_o, min_V )\n",
    "      \n",
    "      count += 1 \n",
    "      residual_log.append( residual[0] )\n",
    "\n",
    "\n",
    "    return V_o.copy_to_host(), residual_log\n",
    "\n"
   ]
  },
  {
   "cell_type": "markdown",
   "metadata": {},
   "source": [
    "# Single positive reward"
   ]
  },
  {
   "cell_type": "code",
   "execution_count": 133,
   "metadata": {
    "colab": {
     "base_uri": "https://localhost:8080/",
     "height": 1000
    },
    "id": "ISHdcB5daOLr",
    "outputId": "c9615e39-1170-497d-9d1d-a9356b337b38"
   },
   "outputs": [
    {
     "name": "stdout",
     "output_type": "stream",
     "text": [
      "(100, 100) 10000\n",
      "Solving MDP\n",
      "0.09275003802031279\n"
     ]
    }
   ],
   "source": [
    "\n",
    "\n",
    "# The dimensions of the state space S is captured by dims.  \n",
    "# Multiplying the dimensions together would yield the size of the\n",
    "# state space |S|.\n",
    "dim = 100\n",
    "dims = (dim,dim)  # square grid world\n",
    "size = np.prod( dims )\n",
    "\n",
    "print( dims, size )\n",
    "\n",
    "# The value function is the same size as the state space\n",
    "V = np.zeros( dims )\n",
    "\n",
    "# Our action space is up, left, down, right.  If we were to go beyond\n",
    "# the boundaries of the state space by taking an action 'a', then \n",
    "# will will just stay in the current state 's'.\n",
    "num_actions = 4\n",
    "  \n",
    "\n",
    "# For now, we are creating a reward function R( s ) which is only\n",
    "# dependent on the state but not the action.\n",
    "R = np.zeros( dims )\n",
    "\n",
    "# define some rewards in the reward function\n",
    "R[ 50,50 ] = 10\n",
    "\n",
    "\n",
    "# define bellman residual threshold\n",
    "epsilon = 1\n",
    "\n",
    "# discount factor\n",
    "gamma = 0.99\n",
    "\n",
    "print( \"Solving MDP\" )\n",
    "\n",
    "from timeit import default_timer as timer\n",
    "\n",
    "# Solve first without plotting\n",
    "start = timer()    \n",
    "V_o, residual_log = numba_value_iteration( dims, V, R, epsilon, gamma )\n",
    "end = timer()\n",
    "print(end - start) # Time in seconds, e.g. 5.38091952400282\n",
    "\n",
    "\n",
    "\n",
    "\n"
   ]
  },
  {
   "cell_type": "code",
   "execution_count": 134,
   "metadata": {},
   "outputs": [
    {
     "name": "stdout",
     "output_type": "stream",
     "text": [
      "Took 231 iterations to reach Bellman residual of 1.000000\n"
     ]
    }
   ],
   "source": [
    "print( 'Took %d iterations to reach Bellman residual of %f' % (len(residual_log), epsilon) )"
   ]
  },
  {
   "cell_type": "code",
   "execution_count": null,
   "metadata": {},
   "outputs": [
    {
     "name": "stdout",
     "output_type": "stream",
     "text": [
      "rm: cannot remove 'anim/*.png': No such file or directory\n"
     ]
    }
   ],
   "source": [
    "# Now go back and plot now that we know the final answer, so we know maximum values and can color things appropriately\n",
    "!rm anim/*.png\n",
    "\n",
    "discard1, discard2 = numba_value_iteration( dims, V, R, epsilon, gamma, plot=True, final_V_o=V_o, min_V=-50, skip=None)\n"
   ]
  },
  {
   "cell_type": "code",
   "execution_count": 136,
   "metadata": {},
   "outputs": [
    {
     "name": "stdout",
     "output_type": "stream",
     "text": [
      "Error: unable to open display \n",
      "ffmpeg version n4.3.1 Copyright (c) 2000-2020 the FFmpeg developers\n",
      "  built with gcc 7 (Ubuntu 7.5.0-3ubuntu1~18.04)\n",
      "  configuration: --prefix= --prefix=/usr --disable-debug --disable-doc --disable-static --enable-cuda --enable-cuda-sdk --enable-cuvid --enable-libdrm --enable-ffplay --enable-gnutls --enable-gpl --enable-libass --enable-libfdk-aac --enable-libfontconfig --enable-libfreetype --enable-libmp3lame --enable-libnpp --enable-libopencore_amrnb --enable-libopencore_amrwb --enable-libopus --enable-libpulse --enable-sdl2 --enable-libspeex --enable-libtheora --enable-libtwolame --enable-libv4l2 --enable-libvorbis --enable-libvpx --enable-libx264 --enable-libx265 --enable-libxcb --enable-libxvid --enable-nonfree --enable-nvenc --enable-omx --enable-openal --enable-opencl --enable-runtime-cpudetect --enable-shared --enable-vaapi --enable-vdpau --enable-version3 --enable-xlib\n",
      "  libavutil      56. 51.100 / 56. 51.100\n",
      "  libavcodec     58. 91.100 / 58. 91.100\n",
      "  libavformat    58. 45.100 / 58. 45.100\n",
      "  libavdevice    58. 10.100 / 58. 10.100\n",
      "  libavfilter     7. 85.100 /  7. 85.100\n",
      "  libswscale      5.  7.100 /  5.  7.100\n",
      "  libswresample   3.  7.100 /  3.  7.100\n",
      "  libpostproc    55.  7.100 / 55.  7.100\n",
      "\u001b[0;35m[image2 @ 0x562265209a00] \u001b[0m\u001b[1;31mCould not open file : anim/*.png\n",
      "\u001b[0m\u001b[0;35m[image2 @ 0x562265209a00] \u001b[0m\u001b[0;33mCould not find codec parameters for stream 0 (Video: png, none(pc)): unspecified size\n",
      "Consider increasing the value for the 'analyzeduration' and 'probesize' options\n",
      "\u001b[0mInput #0, image2, from 'anim/*.png':\n",
      "  Duration: 00:00:00.02, start: 0.000000, bitrate: N/A\n",
      "    Stream #0:0: Video: png, none(pc), 60 tbr, 60 tbn, 60 tbc\n",
      "Output #0, image2, to 'palette.png':\n",
      "\u001b[1;31mOutput file #0 does not contain any stream\n",
      "\u001b[0mError: unable to open display \n",
      "ffmpeg version n4.3.1 Copyright (c) 2000-2020 the FFmpeg developers\n",
      "  built with gcc 7 (Ubuntu 7.5.0-3ubuntu1~18.04)\n",
      "  configuration: --prefix= --prefix=/usr --disable-debug --disable-doc --disable-static --enable-cuda --enable-cuda-sdk --enable-cuvid --enable-libdrm --enable-ffplay --enable-gnutls --enable-gpl --enable-libass --enable-libfdk-aac --enable-libfontconfig --enable-libfreetype --enable-libmp3lame --enable-libnpp --enable-libopencore_amrnb --enable-libopencore_amrwb --enable-libopus --enable-libpulse --enable-sdl2 --enable-libspeex --enable-libtheora --enable-libtwolame --enable-libv4l2 --enable-libvorbis --enable-libvpx --enable-libx264 --enable-libx265 --enable-libxcb --enable-libxvid --enable-nonfree --enable-nvenc --enable-omx --enable-openal --enable-opencl --enable-runtime-cpudetect --enable-shared --enable-vaapi --enable-vdpau --enable-version3 --enable-xlib\n",
      "  libavutil      56. 51.100 / 56. 51.100\n",
      "  libavcodec     58. 91.100 / 58. 91.100\n",
      "  libavformat    58. 45.100 / 58. 45.100\n",
      "  libavdevice    58. 10.100 / 58. 10.100\n",
      "  libavfilter     7. 85.100 /  7. 85.100\n",
      "  libswscale      5.  7.100 /  5.  7.100\n",
      "  libswresample   3.  7.100 /  3.  7.100\n",
      "  libpostproc    55.  7.100 / 55.  7.100\n",
      "\u001b[0;35m[image2 @ 0x5584324bdbc0] \u001b[0m\u001b[1;31mCould not open file : anim/*.png\n",
      "\u001b[0m\u001b[0;35m[image2 @ 0x5584324bdbc0] \u001b[0m\u001b[0;33mCould not find codec parameters for stream 0 (Video: png, none(pc)): unspecified size\n",
      "Consider increasing the value for the 'analyzeduration' and 'probesize' options\n",
      "\u001b[0mInput #0, image2, from 'anim/*.png':\n",
      "  Duration: 00:00:00.02, start: 0.000000, bitrate: N/A\n",
      "    Stream #0:0: Video: png, none(pc), 60 tbr, 60 tbn, 60 tbc\n",
      "Input #1, png_pipe, from 'palette.png':\n",
      "  Duration: N/A, bitrate: N/A\n",
      "    Stream #1:0: Video: png, rgba(pc), 16x16 [SAR 1:1 DAR 1:1], 25 tbr, 25 tbn, 25 tbc\n",
      "Stream mapping:\n",
      "  Stream #0:0 (png) -> paletteuse:default\n",
      "  Stream #1:0 (png) -> paletteuse:palette\n",
      "  paletteuse -> Stream #0:0 (gif)\n",
      "Press [q] to stop, [?] for help\n",
      "\u001b[0;35m[image2 @ 0x5584324bdbc0] \u001b[0m\u001b[1;31mCould not open file : anim/*.png\n",
      "\u001b[0m\u001b[1;31manim/*.png: Input/output error\n",
      "\u001b[0m\u001b[1;31mCannot determine format of input stream 0:0 after EOF\n",
      "\u001b[0m\u001b[4;31mError marking filters as finished\n",
      "\u001b[0mConversion failed!\n"
     ]
    }
   ],
   "source": [
    "# Found ffmpeg works pretty well nowadays (6/14/22).  Note the pallete has to be generated first or the image quality\n",
    "# will be poor.  This was generating gifs for me in maybe 15 seconds or so.\n",
    "\n",
    "!/snap/bin/ffmpeg -y -framerate 60 -pattern_type glob -i 'anim/*.png' -vf palettegen palette.png\n",
    "!/snap/bin/ffmpeg -y -framerate 60 -pattern_type glob -i 'anim/*.png' -i palette.png -lavfi paletteuse  single_positive.gif"
   ]
  },
  {
   "cell_type": "markdown",
   "metadata": {
    "tags": []
   },
   "source": [
    "# Positive rewards"
   ]
  },
  {
   "cell_type": "code",
   "execution_count": 90,
   "metadata": {
    "colab": {
     "base_uri": "https://localhost:8080/",
     "height": 1000
    },
    "id": "ISHdcB5daOLr",
    "outputId": "c9615e39-1170-497d-9d1d-a9356b337b38"
   },
   "outputs": [
    {
     "name": "stdout",
     "output_type": "stream",
     "text": [
      "(100, 100) 10000\n",
      "Solving MDP\n",
      "0.29435010999441147\n"
     ]
    },
    {
     "name": "stderr",
     "output_type": "stream",
     "text": [
      "/home/bertrjr1/anaconda3/envs/gpu2/lib/python3.9/site-packages/numba/cuda/compiler.py:726: NumbaPerformanceWarning: Grid size (40) < 2 * SM count (92) will likely result in GPU under utilization due to low occupancy.\n",
      "  warn(NumbaPerformanceWarning(msg))\n"
     ]
    }
   ],
   "source": [
    "\n",
    "\n",
    "# The dimensions of the state space S is captured by dims.  \n",
    "# Multiplying the dimensions together would yield the size of the\n",
    "# state space |S|.\n",
    "dim = 100\n",
    "dims = (dim,dim)  # square grid world\n",
    "size = np.prod( dims )\n",
    "\n",
    "print( dims, size )\n",
    "\n",
    "# The value function is the same size as the state space\n",
    "V = np.zeros( dims )\n",
    "\n",
    "# Our action space is up, left, down, right.  If we were to go beyond\n",
    "# the boundaries of the state space by taking an action 'a', then \n",
    "# will will just stay in the current state 's'.\n",
    "num_actions = 4\n",
    "  \n",
    "\n",
    "# For now, we are creating a reward function R( s ) which is only\n",
    "# dependent on the state but not the action.\n",
    "R = np.zeros( dims )\n",
    "\n",
    "# define some rewards in the reward function\n",
    "R[ 20,70 ] = 10\n",
    "R[ 90,30 ] = 10\n",
    "\n",
    "# define bellman residual threshold\n",
    "epsilon = .05\n",
    "\n",
    "# discount factor\n",
    "gamma = 0.99\n",
    "\n",
    "print( \"Solving MDP\" )\n",
    "\n",
    "from timeit import default_timer as timer\n",
    "\n",
    "# Solve first without plotting\n",
    "start = timer()    \n",
    "V_o, residual_log = numba_value_iteration( dims, V, R, epsilon, gamma )\n",
    "end = timer()\n",
    "print(end - start) # Time in seconds, e.g. 5.38091952400282\n",
    "\n",
    "\n",
    "\n",
    "\n"
   ]
  },
  {
   "cell_type": "code",
   "execution_count": 91,
   "metadata": {},
   "outputs": [
    {
     "name": "stdout",
     "output_type": "stream",
     "text": [
      "Took 529 iterations to reach Bellman residual of 0.050000\n"
     ]
    }
   ],
   "source": [
    "print( 'Took %d iterations to reach Bellman residual of %f' % (len(residual_log), epsilon) )"
   ]
  },
  {
   "cell_type": "code",
   "execution_count": 80,
   "metadata": {},
   "outputs": [
    {
     "data": {
      "text/plain": [
       "(array([[200.94059493, 202.97029791, 205.07009165, ..., 310.8623685 ,\n",
       "         307.75374482, 304.62711455],\n",
       "        [202.97029791, 205.07009165, 207.14150671, ..., 314.05198113,\n",
       "         310.8623685 , 307.75374482],\n",
       "        [205.07009165, 207.14150671, 209.28343387, ..., 317.22422336,\n",
       "         314.05198113, 310.8623685 ],\n",
       "        ...,\n",
       "        [343.9898514 , 347.51408507, 351.02432835, ..., 236.42203681,\n",
       "         234.00872362, 231.66863639],\n",
       "        [340.54995289, 343.9898514 , 347.51408507, ..., 234.00872362,\n",
       "         231.66863639, 229.30285721],\n",
       "        [337.09536055, 340.54995289, 343.9898514 , ..., 231.66863639,\n",
       "         229.30285721, 227.00982864]]),\n",
       " [10.0,\n",
       "  9.9,\n",
       "  9.801000000000002,\n",
       "  9.702990000000002,\n",
       "  9.605960100000003,\n",
       "  9.509900499000004,\n",
       "  9.414801494010005,\n",
       "  9.320653479069906,\n",
       "  9.227446944279206,\n",
       "  9.135172474836414,\n",
       "  9.04382075008805,\n",
       "  8.95338254258717,\n",
       "  8.863848717161298,\n",
       "  8.775210229989689,\n",
       "  8.687458127689801,\n",
       "  8.600583546412906,\n",
       "  8.514577710948771,\n",
       "  8.429431933839282,\n",
       "  8.345137614500892,\n",
       "  8.261686238355885,\n",
       "  8.179069375972325,\n",
       "  8.097278682212597,\n",
       "  8.016305895390467,\n",
       "  7.936142836436559,\n",
       "  7.8567814080721945,\n",
       "  7.778213593991481,\n",
       "  7.700431458051568,\n",
       "  7.623427143471062,\n",
       "  7.547192872036348,\n",
       "  7.471720943315972,\n",
       "  7.397003733882826,\n",
       "  7.323033696544002,\n",
       "  7.249803359578564,\n",
       "  7.177305325982772,\n",
       "  7.105532272722954,\n",
       "  7.034476949995735,\n",
       "  6.964132180495781,\n",
       "  6.89449085869083,\n",
       "  6.8255459501039155,\n",
       "  6.75729049060287,\n",
       "  6.68971758569684,\n",
       "  6.622820409839875,\n",
       "  6.556592205741481,\n",
       "  6.491026283684079,\n",
       "  6.426116020847246,\n",
       "  6.361854860638772,\n",
       "  6.298236312032401,\n",
       "  6.235253948912089,\n",
       "  6.172901409422963,\n",
       "  6.111172395328737,\n",
       "  6.050060671375462,\n",
       "  5.989560064661703,\n",
       "  5.929664464015076,\n",
       "  5.870367819374934,\n",
       "  5.811664141181183,\n",
       "  5.753547499769368,\n",
       "  5.696012024771676,\n",
       "  5.639051904523967,\n",
       "  5.58266138547873,\n",
       "  5.526834771623939,\n",
       "  5.471566423907703,\n",
       "  5.416850759668634,\n",
       "  5.362682252071949,\n",
       "  5.309055429551236,\n",
       "  5.255964875255728,\n",
       "  5.203405226503165,\n",
       "  5.151371174238122,\n",
       "  5.0998574624957485,\n",
       "  5.048858887870793,\n",
       "  4.998370298992086,\n",
       "  4.948386596002166,\n",
       "  4.898902730042153,\n",
       "  4.8499137027417305,\n",
       "  4.80141456571431,\n",
       "  4.753400420057176,\n",
       "  4.705866415856605,\n",
       "  4.658807751698049,\n",
       "  4.612219674181063,\n",
       "  4.566097477439243,\n",
       "  4.52043650266485,\n",
       "  4.475232137638201,\n",
       "  4.430479816261823,\n",
       "  4.386175018099209,\n",
       "  4.342313267918215,\n",
       "  4.298890135239034,\n",
       "  4.255901233886647,\n",
       "  4.213342221547805,\n",
       "  4.171208799332334,\n",
       "  4.129496711338987,\n",
       "  4.0882017442256,\n",
       "  4.047319726783343,\n",
       "  4.006846529515514,\n",
       "  3.9667780642203496,\n",
       "  3.927110283578159,\n",
       "  3.8878391807423753,\n",
       "  3.84896078893496,\n",
       "  3.8104711810456138,\n",
       "  3.772366469235166,\n",
       "  3.7346428045428155,\n",
       "  3.697296376497391,\n",
       "  3.66032341273241,\n",
       "  3.623720178605083,\n",
       "  3.5874829768190466,\n",
       "  3.551608147050871,\n",
       "  3.5160920655803523,\n",
       "  3.48093114492454,\n",
       "  3.4461218334753028,\n",
       "  3.411660615140562,\n",
       "  3.3775440089891333,\n",
       "  3.343768568899236,\n",
       "  3.3103308832102414,\n",
       "  3.2772275743781307,\n",
       "  3.2444552986343496,\n",
       "  3.2120107456480014,\n",
       "  3.179890638191523,\n",
       "  3.1480917318096147,\n",
       "  3.116610814491537,\n",
       "  3.0854447063466637,\n",
       "  3.054590259283202,\n",
       "  3.0240443566903537,\n",
       "  2.993803913123486,\n",
       "  2.9638658739922903,\n",
       "  2.934227215252349,\n",
       "  2.9048849430998303,\n",
       "  2.875836093668795,\n",
       "  2.8470777327321173,\n",
       "  2.818606955404789,\n",
       "  2.79042088585075,\n",
       "  2.7625166769922487,\n",
       "  2.734891510222326,\n",
       "  2.7075425951200884,\n",
       "  2.680467169168878,\n",
       "  2.6536624974771996,\n",
       "  2.6271258725024325,\n",
       "  2.6008546137774147,\n",
       "  2.5748460676396405,\n",
       "  2.549097606963244,\n",
       "  2.523606630893596,\n",
       "  2.4983705645846612,\n",
       "  2.4733868589388237,\n",
       "  2.4486529903494443,\n",
       "  2.4241664604459743,\n",
       "  2.399924795841514,\n",
       "  2.3759255478830994,\n",
       "  2.3521662924042914,\n",
       "  2.3286446294802374,\n",
       "  2.305358183185433,\n",
       "  2.2823046013535873,\n",
       "  2.259481555340045,\n",
       "  2.236886739786655,\n",
       "  2.214517872388768,\n",
       "  2.192372693664879,\n",
       "  2.1704489667282303,\n",
       "  2.1487444770609443,\n",
       "  2.1272570322903164,\n",
       "  2.1059844619674095,\n",
       "  2.0849246173477525,\n",
       "  2.064075371174283,\n",
       "  2.0434346174625375,\n",
       "  2.0230002712879127,\n",
       "  2.002770268575034,\n",
       "  1.982742565889282,\n",
       "  1.9629151402303933,\n",
       "  1.9432859888280802,\n",
       "  1.923853128939811,\n",
       "  1.9046145976504363,\n",
       "  1.8855684516739473,\n",
       "  1.8667127671572246,\n",
       "  1.8480456394856617,\n",
       "  1.829565183090807,\n",
       "  1.81126953125991,\n",
       "  1.7931568359473147,\n",
       "  1.7752252675878424,\n",
       "  1.757473014911966,\n",
       "  1.7398982847628304,\n",
       "  1.7224993019152066,\n",
       "  1.705274308896037,\n",
       "  1.6882215658070834,\n",
       "  1.671339350149026,\n",
       "  1.6546259566475499,\n",
       "  1.638079697081082,\n",
       "  1.6216989001102604,\n",
       "  1.6054819111091376,\n",
       "  1.589427091998033,\n",
       "  1.5735328210780608,\n",
       "  1.5577974928672802,\n",
       "  1.5422195179386335,\n",
       "  1.5267973227592506,\n",
       "  1.5115293495316564,\n",
       "  1.4964140560363717,\n",
       "  1.4814499154760483,\n",
       "  1.46663541632131,\n",
       "  1.4519690621581276,\n",
       "  1.4374493715365588,\n",
       "  1.4230748778211932,\n",
       "  1.4088441290429614,\n",
       "  1.3947556877525358,\n",
       "  1.3808081308750388,\n",
       "  1.3670000495662862,\n",
       "  1.353330049070621,\n",
       "  1.3397967485798858,\n",
       "  1.326398781094099,\n",
       "  1.3131347932831545,\n",
       "  1.3000034453503417,\n",
       "  1.2870034108968298,\n",
       "  1.2741333767878587,\n",
       "  1.2613920430200096,\n",
       "  1.2487781225897834,\n",
       "  1.2362903413638833,\n",
       "  1.2239274379502376,\n",
       "  1.2116881635707841,\n",
       "  1.1995712819350501,\n",
       "  1.1875755691156655,\n",
       "  1.1756998134245578,\n",
       "  1.1639428152902838,\n",
       "  1.1523033871374082,\n",
       "  1.1407803532660523,\n",
       "  1.1293725497333753,\n",
       "  1.118078824236079,\n",
       "  1.1068980359937086,\n",
       "  1.0958290556337715,\n",
       "  1.0848707650774259,\n",
       "  1.074022057426646,\n",
       "  1.0632818368523829,\n",
       "  1.0526490184838622,\n",
       "  1.0421225282990179,\n",
       "  1.0317013030160354,\n",
       "  1.0213842899858605,\n",
       "  1.0111704470859877,\n",
       "  1.001058742615129,\n",
       "  0.9910481551889916,\n",
       "  0.9811376736371074,\n",
       "  0.9713262969007417,\n",
       "  0.9616130339317408,\n",
       "  0.9519969035924305,\n",
       "  0.9424769345565096,\n",
       "  0.9330521652109383,\n",
       "  0.9237216435587925,\n",
       "  0.9144844271231989,\n",
       "  0.9053395828519513,\n",
       "  0.8962861870234349,\n",
       "  0.8873233251532042,\n",
       "  0.8784500919016693,\n",
       "  0.8696655909826632,\n",
       "  0.8609689350728615,\n",
       "  0.8523592457221412,\n",
       "  0.8438356532649038,\n",
       "  0.8353972967322534,\n",
       "  0.8270433237649399,\n",
       "  0.8187728905272706,\n",
       "  0.8105851616219866,\n",
       "  0.802479310005765,\n",
       "  0.7944545169057164,\n",
       "  0.7865099717366775,\n",
       "  0.7786448720193562,\n",
       "  0.7708584232991598,\n",
       "  0.7631498390661591,\n",
       "  0.7555183406755077,\n",
       "  0.7479631572687708,\n",
       "  0.7404835256960496,\n",
       "  0.733078690439072,\n",
       "  0.7257479035346819,\n",
       "  0.7184904244993504,\n",
       "  0.7113055202543705,\n",
       "  0.7041924650518467,\n",
       "  0.6971505404013101,\n",
       "  0.6901790349972998,\n",
       "  0.6832772446473427,\n",
       "  0.6764444722008989,\n",
       "  0.6696800274788757,\n",
       "  0.6629832272041085,\n",
       "  0.6563533949320686,\n",
       "  0.6497898609827075,\n",
       "  0.6432919623728708,\n",
       "  0.6368590427491085,\n",
       "  0.6304904523216237,\n",
       "  0.6241855477984188,\n",
       "  0.6179436923204378,\n",
       "  0.6117642553972473,\n",
       "  0.6056466128432589,\n",
       "  0.5995901467148315,\n",
       "  0.5935942452476866,\n",
       "  0.587658302795262,\n",
       "  0.5817817197673207,\n",
       "  0.5759639025696401,\n",
       "  0.5702042635439284,\n",
       "  0.56450222090848,\n",
       "  0.5588571986993998,\n",
       "  0.553268626712395,\n",
       "  0.5477359404452784,\n",
       "  0.5422585810408407,\n",
       "  0.5368359952304331,\n",
       "  0.5314676352781476,\n",
       "  0.5261529589253655,\n",
       "  0.5208914293361033,\n",
       "  0.5156825150427551,\n",
       "  0.5105256898923187,\n",
       "  0.5054204329933896,\n",
       "  0.500366228663438,\n",
       "  0.495362566376798,\n",
       "  0.49040894071305274,\n",
       "  0.4855048513059046,\n",
       "  0.4806498027928683,\n",
       "  0.4758433047649646,\n",
       "  0.4710848717173235,\n",
       "  0.4663740230001281,\n",
       "  0.4617102827701274,\n",
       "  0.4570931799424329,\n",
       "  0.4525222481429978,\n",
       "  0.4479970256615502,\n",
       "  0.44351705540492503,\n",
       "  0.43908188485090704,\n",
       "  0.434691066002415,\n",
       "  0.43034415534236814,\n",
       "  0.42604071378895014,\n",
       "  0.42178030665104416,\n",
       "  0.4175625035845769,\n",
       "  0.41338687854874934,\n",
       "  0.4092530097632334,\n",
       "  0.40516047966559654,\n",
       "  0.4011088748689531,\n",
       "  0.3970977861202414,\n",
       "  0.3931268082590691,\n",
       "  0.3891955401765017,\n",
       "  0.3853035847747037,\n",
       "  0.3814505489269777,\n",
       "  0.37763604343768975,\n",
       "  0.37385968300327477,\n",
       "  0.370121086173242,\n",
       "  0.36641987531152154,\n",
       "  0.3627556765584359,\n",
       "  0.35912811979289927,\n",
       "  0.3555368385950146,\n",
       "  0.35198147020906845,\n",
       "  0.3484616555069806,\n",
       "  0.34497703895192444,\n",
       "  0.3415272685624018,\n",
       "  0.33811199587677265,\n",
       "  0.3347308759180123,\n",
       "  0.3313835671588663,\n",
       "  0.3280697314872896,\n",
       "  0.32478903417239735,\n",
       "  0.32154114383064325,\n",
       "  0.3183257323923385,\n",
       "  0.31514247506839865,\n",
       "  0.31199105031771523,\n",
       "  0.30887113981452785,\n",
       "  0.3057824284163644,\n",
       "  0.3027246041322087,\n",
       "  0.2996973580908957,\n",
       "  0.296700384510018,\n",
       "  0.2937333806648894,\n",
       "  0.29079604685824734,\n",
       "  0.2878880863896711,\n",
       "  0.28500920552573916,\n",
       "  0.2821591134704704,\n",
       "  0.2793375223357657,\n",
       "  0.2765441471124177,\n",
       "  0.27377870564129125,\n",
       "  0.27104091858490165,\n",
       "  0.2683305093990498,\n",
       "  0.2656472043050826,\n",
       "  0.2629907322620113,\n",
       "  0.26036082493939716,\n",
       "  0.2577572166900097,\n",
       "  0.2551796445231105,\n",
       "  0.2526278480778785,\n",
       "  0.25010156959709207,\n",
       "  0.24760055390109414,\n",
       "  0.2451245483620994,\n",
       "  0.24267330287850086,\n",
       "  0.2402465698497167,\n",
       "  0.23784410415123602,\n",
       "  0.2354656631097214,\n",
       "  0.23311100647862304,\n",
       "  0.23077989641382146,\n",
       "  0.22847209744969632,\n",
       "  0.2261873764752238,\n",
       "  0.22392550271047185,\n",
       "  0.22168624768337963,\n",
       "  0.21946938520653703,\n",
       "  0.21727469135447564,\n",
       "  0.21510194444093145,\n",
       "  0.21295092499650536,\n",
       "  0.21082141574657953,\n",
       "  0.2087132015891484,\n",
       "  0.2066260695732467,\n",
       "  0.20455980887754777,\n",
       "  0.20251421078882004,\n",
       "  0.2004890686808949,\n",
       "  0.19848417799408935,\n",
       "  0.1964993362141172,\n",
       "  0.19453434285196636,\n",
       "  0.19258899942349217,\n",
       "  0.19066310942929476,\n",
       "  0.18875647833505127,\n",
       "  0.1868689135517343,\n",
       "  0.18500022441622832,\n",
       "  0.18315022217205978,\n",
       "  0.18131871995035453,\n",
       "  0.17950553275085213,\n",
       "  0.17771047742337487,\n",
       "  0.17593337264918318,\n",
       "  0.17417403892272887,\n",
       "  0.1724322985334652,\n",
       "  0.1707079755481118,\n",
       "  0.16900089579257838,\n",
       "  0.16731088683462758,\n",
       "  0.1656377779663103,\n",
       "  0.16398140018668528,\n",
       "  0.16234158618476613,\n",
       "  0.16071817032292302,\n",
       "  0.1591109886196591,\n",
       "  0.15751987873346707,\n",
       "  0.15594467994611705,\n",
       "  0.1543852331466269,\n",
       "  0.15284138081514698,\n",
       "  0.1513129670070157,\n",
       "  0.14979983733692848,\n",
       "  0.14830183896356175,\n",
       "  0.1468188205739125,\n",
       "  0.1453506323681779,\n",
       "  0.14389712604452143,\n",
       "  0.1424581547840944,\n",
       "  0.14103357323625687,\n",
       "  0.13962323750394035,\n",
       "  0.13822700512889696,\n",
       "  0.1368447350776023,\n",
       "  0.1354762877268172,\n",
       "  0.1341215248495473,\n",
       "  0.1327803096010598,\n",
       "  0.13145250650507023,\n",
       "  0.13013798144001498,\n",
       "  0.12883660162560773,\n",
       "  0.12754823560936757,\n",
       "  0.12627275325328924,\n",
       "  0.12501002572076914,\n",
       "  0.12375992546355974,\n",
       "  0.122522326208923,\n",
       "  0.12129710294681217,\n",
       "  0.1200841319173378,\n",
       "  0.11888329059817693,\n",
       "  0.11769445769218123,\n",
       "  0.11651751311526937,\n",
       "  0.11535233798409195,\n",
       "  0.11419881460423653,\n",
       "  0.11305682645820525,\n",
       "  0.11192625819364821,\n",
       "  0.11080699561171059,\n",
       "  0.10969892565560713,\n",
       "  0.10860193639902604,\n",
       "  0.10751591703501617,\n",
       "  0.1064407578646751,\n",
       "  0.10537635028606473,\n",
       "  0.10432258678321205,\n",
       "  0.10327936091539414,\n",
       "  0.10224656730622428,\n",
       "  0.10122410163313589,\n",
       "  0.10021186061680964,\n",
       "  0.09920974201065746,\n",
       "  0.09821764459056226,\n",
       "  0.09723546814464612,\n",
       "  0.09626311346320904,\n",
       "  0.09530048232858235,\n",
       "  0.09434747750529482,\n",
       "  0.09340400273023874,\n",
       "  0.09246996270294972,\n",
       "  0.09154526307591482,\n",
       "  0.09062981044516505,\n",
       "  0.08972351234072562,\n",
       "  0.08882627721729364,\n",
       "  0.08793801444514315,\n",
       "  0.08705863430068916,\n",
       "  0.0861880479577053,\n",
       "  0.08532616747811517,\n",
       "  0.0844729058033522,\n",
       "  0.08362817674532153,\n",
       "  0.082791894977845,\n",
       "  0.0819639760280495,\n",
       "  0.08114433626775508,\n",
       "  0.0803328929050906,\n",
       "  0.07952956397605249,\n",
       "  0.07873426833629082,\n",
       "  0.07794692565289552,\n",
       "  0.07716745639640976,\n",
       "  0.07639578183244566,\n",
       "  0.07563182401412405,\n",
       "  0.0748755057740027,\n",
       "  0.07412675071623198,\n",
       "  0.07338548320905147,\n",
       "  0.07265162837694561,\n",
       "  0.07192511209319719,\n",
       "  0.07120586097227033,\n",
       "  0.0704938023625914,\n",
       "  0.06978886433896037,\n",
       "  0.06909097569558753,\n",
       "  0.06840006593861858,\n",
       "  0.06771606527922813,\n",
       "  0.06703890462642903,\n",
       "  0.06636851558016588,\n",
       "  0.06570483042440856,\n",
       "  0.06504778212018891,\n",
       "  0.06439730429895008,\n",
       "  0.06375333125595262,\n",
       "  0.0631157979433965,\n",
       "  0.062484639963940936,\n",
       "  0.061859793564337906,\n",
       "  0.06124119562866781,\n",
       "  0.060628783672427744,\n",
       "  0.06002249583571029,\n",
       "  0.05942227087734864,\n",
       "  0.05882804816860698,\n",
       "  0.058239767686927735,\n",
       "  0.057657370010019804,\n",
       "  0.05708079630989005,\n",
       "  0.05650998834681786,\n",
       "  0.05594488846338663,\n",
       "  0.055385439578742535,\n",
       "  0.054831585182967046,\n",
       "  0.05428326933113681,\n",
       "  0.05374043663783823,\n",
       "  0.05320303227145473,\n",
       "  0.052671001948738194,\n",
       "  0.05214429192926673,\n",
       "  0.05162284900995928,\n",
       "  0.05110662051987447,\n",
       "  0.050595554314668334,\n",
       "  0.05008959877153529,\n",
       "  0.049588702783808])"
      ]
     },
     "execution_count": 80,
     "metadata": {},
     "output_type": "execute_result"
    }
   ],
   "source": [
    "# Now go back and plot now that we know the final answer, so we know maximum values and can color things appropriately\n",
    "!rm anim/*.png\n",
    "\n",
    "discard1, discard2 = numba_value_iteration( dims, V, R, epsilon, gamma, plot=True, final_V_o=V_o, min_V=0 )\n"
   ]
  },
  {
   "cell_type": "markdown",
   "metadata": {},
   "source": [
    "## Convert image frames to animation"
   ]
  },
  {
   "cell_type": "code",
   "execution_count": 82,
   "metadata": {},
   "outputs": [],
   "source": [
    "# Tried using imagemagick to convert to animated gif, but it is pretty slow.  Would not recommend.\n",
    "# !convert -delay 20 anim/*.png -loop 0 anim.gif"
   ]
  },
  {
   "cell_type": "code",
   "execution_count": 83,
   "metadata": {},
   "outputs": [
    {
     "name": "stdout",
     "output_type": "stream",
     "text": [
      "Error: unable to open display \n",
      "ffmpeg version n4.3.1 Copyright (c) 2000-2020 the FFmpeg developers\n",
      "  built with gcc 7 (Ubuntu 7.5.0-3ubuntu1~18.04)\n",
      "  configuration: --prefix= --prefix=/usr --disable-debug --disable-doc --disable-static --enable-cuda --enable-cuda-sdk --enable-cuvid --enable-libdrm --enable-ffplay --enable-gnutls --enable-gpl --enable-libass --enable-libfdk-aac --enable-libfontconfig --enable-libfreetype --enable-libmp3lame --enable-libnpp --enable-libopencore_amrnb --enable-libopencore_amrwb --enable-libopus --enable-libpulse --enable-sdl2 --enable-libspeex --enable-libtheora --enable-libtwolame --enable-libv4l2 --enable-libvorbis --enable-libvpx --enable-libx264 --enable-libx265 --enable-libxcb --enable-libxvid --enable-nonfree --enable-nvenc --enable-omx --enable-openal --enable-opencl --enable-runtime-cpudetect --enable-shared --enable-vaapi --enable-vdpau --enable-version3 --enable-xlib\n",
      "  libavutil      56. 51.100 / 56. 51.100\n",
      "  libavcodec     58. 91.100 / 58. 91.100\n",
      "  libavformat    58. 45.100 / 58. 45.100\n",
      "  libavdevice    58. 10.100 / 58. 10.100\n",
      "  libavfilter     7. 85.100 /  7. 85.100\n",
      "  libswscale      5.  7.100 /  5.  7.100\n",
      "  libswresample   3.  7.100 /  3.  7.100\n",
      "  libpostproc    55.  7.100 / 55.  7.100\n",
      "Input #0, image2, from 'anim/*.png':\n",
      "  Duration: 00:00:08.82, start: 0.000000, bitrate: N/A\n",
      "    Stream #0:0: Video: png, rgba(pc), 1152x432 [SAR 2835:2835 DAR 8:3], 60 fps, 60 tbr, 60 tbn, 60 tbc\n",
      "Stream mapping:\n",
      "  Stream #0:0 -> #0:0 (png (native) -> png (native))\n",
      "Press [q] to stop, [?] for help\n",
      "Output #0, image2, to 'palette.png':\n",
      "  Metadata:\n",
      "    encoder         : Lavf58.45.100\n",
      "    Stream #0:0: Video: png, rgba, 16x16 [SAR 1:1 DAR 1:1], q=2-31, 200 kb/s, 60 fps, 60 tbn, 60 tbc\n",
      "    Metadata:\n",
      "      encoder         : Lavc58.91.100 png\n",
      "\u001b[1;32m[Parsed_palettegen_0 @ 0x556b3ab4b740] \u001b[0m255(+1) colors generated out of 1167 colors; ratio=0.218509\n",
      "\u001b[1;32m[Parsed_palettegen_0 @ 0x556b3ab4b740] \u001b[0m\u001b[0;33mDupped color: FF000000\n",
      "    Last message repeated 8 timesimes\n",
      "\u001b[1;32m[Parsed_palettegen_0 @ 0x556b3ab4b740] \u001b[0m\u001b[0;33mDupped color: FF0B0F26\n",
      "\u001b[0m\u001b[1;32m[Parsed_palettegen_0 @ 0x556b3ab4b740] \u001b[0m\u001b[0;33mDupped color: FFDDDCDB\n",
      "\u001b[0m\u001b[1;32m[Parsed_palettegen_0 @ 0x556b3ab4b740] \u001b[0m\u001b[0;33mDupped color: FFFFFFFF\n",
      "\u001b[0mframe=    1 fps=0.7 q=-0.0 Lsize=N/A time=00:00:00.01 bitrate=N/A speed=0.0121x    \n",
      "video:1kB audio:0kB subtitle:0kB other streams:0kB global headers:0kB muxing overhead: unknown\n",
      "Error: unable to open display \n",
      "ffmpeg version n4.3.1 Copyright (c) 2000-2020 the FFmpeg developers\n",
      "  built with gcc 7 (Ubuntu 7.5.0-3ubuntu1~18.04)\n",
      "  configuration: --prefix= --prefix=/usr --disable-debug --disable-doc --disable-static --enable-cuda --enable-cuda-sdk --enable-cuvid --enable-libdrm --enable-ffplay --enable-gnutls --enable-gpl --enable-libass --enable-libfdk-aac --enable-libfontconfig --enable-libfreetype --enable-libmp3lame --enable-libnpp --enable-libopencore_amrnb --enable-libopencore_amrwb --enable-libopus --enable-libpulse --enable-sdl2 --enable-libspeex --enable-libtheora --enable-libtwolame --enable-libv4l2 --enable-libvorbis --enable-libvpx --enable-libx264 --enable-libx265 --enable-libxcb --enable-libxvid --enable-nonfree --enable-nvenc --enable-omx --enable-openal --enable-opencl --enable-runtime-cpudetect --enable-shared --enable-vaapi --enable-vdpau --enable-version3 --enable-xlib\n",
      "  libavutil      56. 51.100 / 56. 51.100\n",
      "  libavcodec     58. 91.100 / 58. 91.100\n",
      "  libavformat    58. 45.100 / 58. 45.100\n",
      "  libavdevice    58. 10.100 / 58. 10.100\n",
      "  libavfilter     7. 85.100 /  7. 85.100\n",
      "  libswscale      5.  7.100 /  5.  7.100\n",
      "  libswresample   3.  7.100 /  3.  7.100\n",
      "  libpostproc    55.  7.100 / 55.  7.100\n",
      "Input #0, image2, from 'anim/*.png':\n",
      "  Duration: 00:00:08.82, start: 0.000000, bitrate: N/A\n",
      "    Stream #0:0: Video: png, rgba(pc), 1152x432 [SAR 2835:2835 DAR 8:3], 60 fps, 60 tbr, 60 tbn, 60 tbc\n",
      "Input #1, png_pipe, from 'palette.png':\n",
      "  Duration: N/A, bitrate: N/A\n",
      "    Stream #1:0: Video: png, rgba(pc), 16x16 [SAR 1:1 DAR 1:1], 25 tbr, 25 tbn, 25 tbc\n",
      "Stream mapping:\n",
      "  Stream #0:0 (png) -> paletteuse:default\n",
      "  Stream #1:0 (png) -> paletteuse:palette\n",
      "  paletteuse -> Stream #0:0 (gif)\n",
      "Press [q] to stop, [?] for help\n",
      "\u001b[0;35m[image2 @ 0x558873042bc0] \u001b[0m\u001b[0;33mThread message queue blocking; consider raising the thread_queue_size option (current value: 8)\n",
      "\u001b[0mOutput #0, gif, to 'out.gif':\n",
      "  Metadata:\n",
      "    encoder         : Lavf58.45.100\n",
      "    Stream #0:0: Video: gif, pal8, 1152x432 [SAR 1:1 DAR 8:3], q=2-31, 200 kb/s, 60 fps, 100 tbn, 60 tbc (default)\n",
      "    Metadata:\n",
      "      encoder         : Lavc58.91.100 gif\n",
      "frame=  529 fps= 97 q=-0.0 Lsize=   34361kB time=00:00:08.81 bitrate=31950.8kbits/s speed=1.62x    \n",
      "video:34361kB audio:0kB subtitle:0kB other streams:0kB global headers:0kB muxing overhead: 0.000057%\n"
     ]
    }
   ],
   "source": [
    "# Found ffmpeg works pretty well nowadays (6/14/22).  Note the pallete has to be generated first or the image quality\n",
    "# will be poor.  This was generating gifs for me in maybe 15 seconds or so.\n",
    "\n",
    "!/snap/bin/ffmpeg -y -framerate 60 -pattern_type glob -i 'anim/*.png' -vf palettegen palette.png\n",
    "!/snap/bin/ffmpeg -y -framerate 60 -pattern_type glob -i 'anim/*.png' -i palette.png -lavfi paletteuse  positive_rewards.gif"
   ]
  },
  {
   "cell_type": "code",
   "execution_count": null,
   "metadata": {},
   "outputs": [],
   "source": []
  },
  {
   "cell_type": "markdown",
   "metadata": {},
   "source": [
    "# Positive and Negative rewards"
   ]
  },
  {
   "cell_type": "code",
   "execution_count": 129,
   "metadata": {
    "colab": {
     "base_uri": "https://localhost:8080/",
     "height": 1000
    },
    "id": "ISHdcB5daOLr",
    "outputId": "c9615e39-1170-497d-9d1d-a9356b337b38"
   },
   "outputs": [
    {
     "name": "stdout",
     "output_type": "stream",
     "text": [
      "(100, 100) 10000\n",
      "Solving MDP\n",
      "0.19482245109975338\n"
     ]
    }
   ],
   "source": [
    "\n",
    "\n",
    "# The dimensions of the state space S is captured by dims.  \n",
    "# Multiplying the dimensions together would yield the size of the\n",
    "# state space |S|.\n",
    "dim = 100\n",
    "dims = (dim,dim)  # square grid world\n",
    "size = np.prod( dims )\n",
    "\n",
    "print( dims, size )\n",
    "\n",
    "# The value function is the same size as the state space\n",
    "V = np.zeros( dims )\n",
    "\n",
    "# Our action space is up, left, down, right.  If we were to go beyond\n",
    "# the boundaries of the state space by taking an action 'a', then \n",
    "# will will just stay in the current state 's'.\n",
    "num_actions = 4\n",
    "  \n",
    "\n",
    "# For now, we are creating a reward function R( s ) which is only\n",
    "# dependent on the state but not the action.\n",
    "R = np.zeros( dims )\n",
    "\n",
    "# define some rewards in the reward function\n",
    "R[ 20,70 ] = 10\n",
    "R[ 90,30 ] = 10\n",
    "R[ 80:90,80:90 ] = -50\n",
    "\n",
    "# define bellman residual threshold\n",
    "epsilon = .05\n",
    "\n",
    "# discount factor\n",
    "gamma = 0.99\n",
    "\n",
    "print( \"Solving MDP\" )\n",
    "\n",
    "from timeit import default_timer as timer\n",
    "\n",
    "# Solve first without plotting\n",
    "start = timer()    \n",
    "V_o, residual_log = numba_value_iteration( dims, V, R, epsilon, gamma )\n",
    "end = timer()\n",
    "print(end - start) # Time in seconds, e.g. 5.38091952400282\n",
    "\n",
    "\n",
    "\n",
    "\n"
   ]
  },
  {
   "cell_type": "code",
   "execution_count": 130,
   "metadata": {},
   "outputs": [
    {
     "name": "stdout",
     "output_type": "stream",
     "text": [
      "Took 529 iterations to reach Bellman residual of 0.050000\n",
      "min V: -1.340710, max V: 500.070257\n"
     ]
    }
   ],
   "source": [
    "print( 'Took %d iterations to reach Bellman residual of %f' % (len(residual_log), epsilon) )\n",
    "print( 'min V: %f, max V: %f' % (V_o.min(), V_o.max() ) )"
   ]
  },
  {
   "cell_type": "code",
   "execution_count": 131,
   "metadata": {},
   "outputs": [],
   "source": [
    "# Now go back and plot now that we know the final answer, so we know maximum values and can color things appropriately\n",
    "!rm anim/*.png\n",
    "\n",
    "discard1, discard2 = numba_value_iteration( dims, V, R, epsilon, gamma, plot=True, final_V_o=V_o, min_V=-50, skip=None )\n"
   ]
  },
  {
   "cell_type": "code",
   "execution_count": 132,
   "metadata": {},
   "outputs": [
    {
     "name": "stdout",
     "output_type": "stream",
     "text": [
      "Error: unable to open display \n",
      "ffmpeg version n4.3.1 Copyright (c) 2000-2020 the FFmpeg developers\n",
      "  built with gcc 7 (Ubuntu 7.5.0-3ubuntu1~18.04)\n",
      "  configuration: --prefix= --prefix=/usr --disable-debug --disable-doc --disable-static --enable-cuda --enable-cuda-sdk --enable-cuvid --enable-libdrm --enable-ffplay --enable-gnutls --enable-gpl --enable-libass --enable-libfdk-aac --enable-libfontconfig --enable-libfreetype --enable-libmp3lame --enable-libnpp --enable-libopencore_amrnb --enable-libopencore_amrwb --enable-libopus --enable-libpulse --enable-sdl2 --enable-libspeex --enable-libtheora --enable-libtwolame --enable-libv4l2 --enable-libvorbis --enable-libvpx --enable-libx264 --enable-libx265 --enable-libxcb --enable-libxvid --enable-nonfree --enable-nvenc --enable-omx --enable-openal --enable-opencl --enable-runtime-cpudetect --enable-shared --enable-vaapi --enable-vdpau --enable-version3 --enable-xlib\n",
      "  libavutil      56. 51.100 / 56. 51.100\n",
      "  libavcodec     58. 91.100 / 58. 91.100\n",
      "  libavformat    58. 45.100 / 58. 45.100\n",
      "  libavdevice    58. 10.100 / 58. 10.100\n",
      "  libavfilter     7. 85.100 /  7. 85.100\n",
      "  libswscale      5.  7.100 /  5.  7.100\n",
      "  libswresample   3.  7.100 /  3.  7.100\n",
      "  libpostproc    55.  7.100 / 55.  7.100\n",
      "Input #0, image2, from 'anim/*.png':\n",
      "  Duration: 00:00:08.82, start: 0.000000, bitrate: N/A\n",
      "    Stream #0:0: Video: png, rgba(pc), 1152x432 [SAR 2835:2835 DAR 8:3], 60 fps, 60 tbr, 60 tbn, 60 tbc\n",
      "Stream mapping:\n",
      "  Stream #0:0 -> #0:0 (png (native) -> png (native))\n",
      "Press [q] to stop, [?] for help\n",
      "Output #0, image2, to 'palette.png':\n",
      "  Metadata:\n",
      "    encoder         : Lavf58.45.100\n",
      "    Stream #0:0: Video: png, rgba, 16x16 [SAR 1:1 DAR 1:1], q=2-31, 200 kb/s, 60 fps, 60 tbn, 60 tbc\n",
      "    Metadata:\n",
      "      encoder         : Lavc58.91.100 png\n",
      "\u001b[1;32m[Parsed_palettegen_0 @ 0x55d1e30e3180] \u001b[0m255(+1) colors generated out of 1194 colors; ratio=0.213568\n",
      "\u001b[1;32m[Parsed_palettegen_0 @ 0x55d1e30e3180] \u001b[0m\u001b[0;33mDupped color: FF000000\n",
      "    Last message repeated 2 timesimes\n",
      "\u001b[1;32m[Parsed_palettegen_0 @ 0x55d1e30e3180] \u001b[0m\u001b[0;33mDupped color: FFA8C5FD\n",
      "\u001b[0m\u001b[1;32m[Parsed_palettegen_0 @ 0x55d1e30e3180] \u001b[0m\u001b[0;33mDupped color: FFF6AA8C\n",
      "\u001b[0m\u001b[1;32m[Parsed_palettegen_0 @ 0x55d1e30e3180] \u001b[0m\u001b[0;33mDupped color: FFFFFFFF\n",
      "\u001b[0mframe=    1 fps=0.7 q=-0.0 Lsize=N/A time=00:00:00.01 bitrate=N/A speed=0.0114x    \n",
      "video:1kB audio:0kB subtitle:0kB other streams:0kB global headers:0kB muxing overhead: unknown\n",
      "Error: unable to open display \n",
      "ffmpeg version n4.3.1 Copyright (c) 2000-2020 the FFmpeg developers\n",
      "  built with gcc 7 (Ubuntu 7.5.0-3ubuntu1~18.04)\n",
      "  configuration: --prefix= --prefix=/usr --disable-debug --disable-doc --disable-static --enable-cuda --enable-cuda-sdk --enable-cuvid --enable-libdrm --enable-ffplay --enable-gnutls --enable-gpl --enable-libass --enable-libfdk-aac --enable-libfontconfig --enable-libfreetype --enable-libmp3lame --enable-libnpp --enable-libopencore_amrnb --enable-libopencore_amrwb --enable-libopus --enable-libpulse --enable-sdl2 --enable-libspeex --enable-libtheora --enable-libtwolame --enable-libv4l2 --enable-libvorbis --enable-libvpx --enable-libx264 --enable-libx265 --enable-libxcb --enable-libxvid --enable-nonfree --enable-nvenc --enable-omx --enable-openal --enable-opencl --enable-runtime-cpudetect --enable-shared --enable-vaapi --enable-vdpau --enable-version3 --enable-xlib\n",
      "  libavutil      56. 51.100 / 56. 51.100\n",
      "  libavcodec     58. 91.100 / 58. 91.100\n",
      "  libavformat    58. 45.100 / 58. 45.100\n",
      "  libavdevice    58. 10.100 / 58. 10.100\n",
      "  libavfilter     7. 85.100 /  7. 85.100\n",
      "  libswscale      5.  7.100 /  5.  7.100\n",
      "  libswresample   3.  7.100 /  3.  7.100\n",
      "  libpostproc    55.  7.100 / 55.  7.100\n",
      "Input #0, image2, from 'anim/*.png':\n",
      "  Duration: 00:00:08.82, start: 0.000000, bitrate: N/A\n",
      "    Stream #0:0: Video: png, rgba(pc), 1152x432 [SAR 2835:2835 DAR 8:3], 60 fps, 60 tbr, 60 tbn, 60 tbc\n",
      "Input #1, png_pipe, from 'palette.png':\n",
      "  Duration: N/A, bitrate: N/A\n",
      "    Stream #1:0: Video: png, rgba(pc), 16x16 [SAR 1:1 DAR 1:1], 25 tbr, 25 tbn, 25 tbc\n",
      "Stream mapping:\n",
      "  Stream #0:0 (png) -> paletteuse:default\n",
      "  Stream #1:0 (png) -> paletteuse:palette\n",
      "  paletteuse -> Stream #0:0 (gif)\n",
      "Press [q] to stop, [?] for help\n",
      "\u001b[0;35m[image2 @ 0x55c50788dbc0] \u001b[0m\u001b[0;33mThread message queue blocking; consider raising the thread_queue_size option (current value: 8)\n",
      "\u001b[0mOutput #0, gif, to 'negative_rewards.gif':\n",
      "  Metadata:\n",
      "    encoder         : Lavf58.45.100\n",
      "    Stream #0:0: Video: gif, pal8, 1152x432 [SAR 1:1 DAR 8:3], q=2-31, 200 kb/s, 60 fps, 100 tbn, 60 tbc (default)\n",
      "    Metadata:\n",
      "      encoder         : Lavc58.91.100 gif\n",
      "frame=  529 fps= 96 q=-0.0 Lsize=   37283kB time=00:00:08.81 bitrate=34668.0kbits/s speed=1.59x    \n",
      "video:37283kB audio:0kB subtitle:0kB other streams:0kB global headers:0kB muxing overhead: 0.000052%\n"
     ]
    }
   ],
   "source": [
    "# Make the animation\n",
    "\n",
    "!/snap/bin/ffmpeg -y -framerate 60 -pattern_type glob -i 'anim/*.png' -vf palettegen palette.png\n",
    "!/snap/bin/ffmpeg -y -framerate 60 -pattern_type glob -i 'anim/*.png' -i palette.png -lavfi paletteuse  negative_rewards.gif\n"
   ]
  },
  {
   "cell_type": "code",
   "execution_count": null,
   "metadata": {},
   "outputs": [],
   "source": []
  }
 ],
 "metadata": {
  "accelerator": "GPU",
  "colab": {
   "collapsed_sections": [],
   "machine_shape": "hm",
   "name": "val_iter_GPU.ipynb",
   "provenance": []
  },
  "kernelspec": {
   "display_name": "Python 3 (ipykernel)",
   "language": "python",
   "name": "python3"
  },
  "language_info": {
   "codemirror_mode": {
    "name": "ipython",
    "version": 3
   },
   "file_extension": ".py",
   "mimetype": "text/x-python",
   "name": "python",
   "nbconvert_exporter": "python",
   "pygments_lexer": "ipython3",
   "version": "3.9.12"
  }
 },
 "nbformat": 4,
 "nbformat_minor": 4
}
